<?xml version="1.0" encoding="UTF-8" standalone="no"?>
<svg
   viewBox="0 0 1024 1024"
   aria-hidden="true"
   version="1.1"
   id="svg1"
   sodipodi:docname="souri-mark.svg"
   inkscape:version="1.4.2 (f4327f4, 2025-05-13)"
   xmlns:inkscape="http://www.inkscape.org/namespaces/inkscape"
   xmlns:sodipodi="http://sodipodi.sourceforge.net/DTD/sodipodi-0.dtd"
   xmlns="http://www.w3.org/2000/svg"
   xmlns:svg="http://www.w3.org/2000/svg">
  <defs
     id="defs1" />
  <sodipodi:namedview
     id="namedview1"
     pagecolor="#ffffff"
     bordercolor="#000000"
     borderopacity="0.25"
     inkscape:showpageshadow="2"
     inkscape:pageopacity="0.0"
     inkscape:pagecheckerboard="0"
     inkscape:deskcolor="#d1d1d1"
     inkscape:zoom="1.2548828"
     inkscape:cx="511.60156"
     inkscape:cy="560.61012"
     inkscape:window-width="2560"
     inkscape:window-height="1566"
     inkscape:window-x="-11"
     inkscape:window-y="-11"
     inkscape:window-maximized="1"
     inkscape:current-layer="svg1" />
  <path
     fill="currentColor"
     d="m 485.50081,844.21623 c 1.76983,-0.74909 4.10531,-2.35745 5.18995,-3.57413 1.89109,-2.1213 1.97322,-3.8343 2,-41.71699 l 0.0279,-39.50485 -3.26578,-2.92102 -3.26575,-2.92103 h -40.56114 -40.56115 l -2.92308,2.92308 c -2.76425,2.76426 -2.92307,3.377 -2.92307,11.27749 0,14.85481 1.8246,15.79943 30.51754,15.79943 21.99878,0 24.60941,0.48776 27.92175,5.2168 2.07646,2.96456 2.14623,16.75024 0.10476,20.69802 -2.79183,5.39881 -6.1187,6.08518 -29.49484,6.08518 -28.17974,0 -29.04921,0.46185 -29.04921,15.43024 0,8.39541 1.90437,11.90246 7.31291,13.46728 1.7529,0.50716 19.51404,0.96269 39.46921,1.01229 28.53561,0.0709 36.96916,-0.2006 39.5,-1.27179 z m 122.71788,0.0555 c 5.20685,-1.77562 7.18715,-6.31862 6.77725,-15.54765 -0.30406,-6.8458 -0.55064,-7.55424 -3.56772,-10.25 l -3.24109,-2.89587 h -25.53388 c -20.86756,0 -26.06996,-0.27722 -28.4673,-1.51692 -6.17222,-3.19179 -5.96726,-0.51329 -5.96726,-77.98308 0,-77.21602 -0.15042,-75.2061 5.78313,-77.27455 2.87925,-1.00371 164.07016,-0.70218 167.31511,0.31299 1.88682,0.59029 3.90176,4.62429 3.90176,7.81151 0,1.24072 -1.74803,5.83204 -3.8845,10.20295 -13.44521,27.50686 -39.75552,49.9297 -67.6155,57.62501 -7.39708,2.04318 -10.86743,2.25163 -46.04699,2.7659 -34.40323,0.50293 -38.31014,0.7288 -40.79464,2.35849 -3.68313,2.41593 -4.65837,5.41227 -4.65837,14.31246 0,8.72561 1.57605,12.55278 5.90829,14.34726 3.78945,1.56964 125.6641,0.80539 139.59171,-0.87535 43.14883,-5.20707 74.61303,-20.09733 103.58763,-49.02231 28.32446,-28.27594 41.20848,-54.69545 43.85172,-89.92077 2.87064,-38.25561 -12.00276,-76.22403 -41.40739,-105.70371 -25.03896,-25.10286 -53.48202,-37.94589 -94.03196,-42.45867 -5.94695,-0.66183 -41.32575,-1.34437 -87.28925,-1.684 -74.45295,-0.55015 -77.37954,-0.64214 -79.75,-2.50674 l -2.46075,-1.93563 v -35.50434 -35.50434 l 2.92307,-2.92308 2.92308,-2.92308 h 104.61908 c 116.60769,0 113.27502,-0.17791 127.53477,6.80822 12.90029,6.32011 23.43529,18.53341 27.9131,32.35987 1.80929,5.5867 5.16656,7.30361 14.3116,7.31895 7.1168,0.0119 7.9431,-0.20524 10.5,-2.75976 l 2.7753,-2.77273 V 373.9689 309.40505 l -2.80577,-2.41342 c -2.4895,-2.14138 -3.76271,-2.41342 -11.29545,-2.41342 -7.61643,0 -8.73535,0.24566 -10.87796,2.38827 -1.31355,1.31355 -2.65857,4.12605 -2.98894,6.25 -1.22402,7.86931 -3.76424,16.02115 -6.81131,21.85819 -4.35946,8.35108 -16.40325,20.13312 -24.72057,24.18332 -13.5547,6.6006 -8.11749,6.32022 -122.56561,6.32022 -95.16219,0 -103.92872,-0.13738 -105.60565,-1.65498 -2.3918,-2.16455 -2.31127,-4.82821 0.27237,-9.00862 2.16842,-3.50858 2.83479,-3.87292 34.0846,-18.63582 15.41722,-7.28333 24.01155,-12.96086 33.9231,-22.41006 18.72881,-17.85516 26.63904,-34.40002 27.6301,-57.79052 0.58372,-13.77672 -0.73049,-20.65257 -6.00693,-31.42776 -3.35743,-6.8563 -14.55943,-19.24792 -18.54307,-20.51228 -1.97945,-0.62825 -2.09936,-1.29835 -1.94425,-10.86475 0.28581,-17.62687 -4.86935,-31.21088 -16.24466,-42.8052 -15.55615,-15.85567 -33.99494,-22.97282 -59.58002,-22.99719 -17.73977,-0.0169 -30.4612,2.65981 -43.4224,9.13647 -27.23469,13.60909 -41.26668,42.69719 -34.15786,70.80874 2.65926,10.51594 6.97779,18.1476 14.28031,25.23599 13.26724,12.8782 31.04462,17.71826 48.81608,13.29064 9.65523,-2.40552 15.56368,-5.32761 25.04761,-12.38756 10.47015,-7.79409 15.91979,-10.66215 23.01628,-12.11309 10.70972,-2.18968 19.85119,3.09257 24.16561,13.96372 1.88992,4.76208 2.25378,7.59783 2.26758,17.67227 0.02,14.56981 -1.57234,21.30224 -8.15969,34.5 -3.98503,7.984 -6.26025,11.0258 -14.2576,19.06135 -11.16086,11.21416 -19.41544,16.60534 -39.30201,25.66869 -15.74352,7.17514 -22.11064,11.33562 -26.00132,16.99011 -5.33379,7.75183 -5.17903,5.93354 -5.71257,67.1173 l -0.5,57.33744 -2.80577,2.41256 -2.80576,2.41255 h -99.44424 -99.44423 l -2.12454,-2.12454 c -6.43351,-6.43351 5.90636,-31.02936 24.17873,-48.19306 17.56003,-16.49459 39.36364,-26.50016 64.44581,-29.57386 5.25592,-0.64409 26.5897,-1.10408 51.28212,-1.10572 46.45966,-0.003 47.68903,-0.14567 50.65146,-5.87438 1.04596,-2.02267 1.56642,-5.73691 1.56642,-11.17878 0,-7.9349 -0.0896,-8.23925 -3.4,-11.54966 l -3.4,-3.4 -78.35,0.009 c -44.65034,0.005 -83.27532,0.44447 -89.80111,1.02204 -14.06773,1.24509 -28.65537,4.13922 -40.54889,8.04474 -12.5651,4.12606 -35.20722,15.63995 -46.5,23.64602 -13.13622,9.31299 -34.04371,30.33252 -41.99301,42.21804 -20.26431,30.2985 -28.89409,68.32867 -23.13033,101.93192 2.29852,13.4006 7.27394,29.53274 11.96662,38.80017 5.19014,10.24986 14.58478,23.5858 22.62497,32.11674 19.87076,21.08361 44.34611,33.85821 76.91057,40.1425 20.57342,3.97026 28.57996,4.26702 126.62118,4.69313 52.525,0.22829 96.50431,0.63783 97.73181,0.91009 5.38073,1.19347 5.26819,-0.79029 5.26819,92.86063 v 86.4939 l 2.30676,2.68177 c 1.38679,1.61224 3.87939,2.98447 6.25,3.44076 6.82449,1.31358 80.47229,1.03671 84.44324,-0.31745 z m 92.6312,-115.42301 c 35.95984,-19.10337 61.43221,-56.29496 66.82654,-97.57176 1.81112,-13.85853 1.92285,-21.1534 0.50121,-32.72502 -2.3719,-19.30637 -9.73159,-37.91344 -20.81239,-52.61878 -9.74472,-12.93221 -24.83499,-24.68851 -38.64656,-30.10818 -8.37187,-3.28513 -6.35665,-4.12078 5.48138,-2.27296 32.79928,5.11968 62.31078,21.88423 78.6431,44.67463 6.03274,8.41821 12.72417,23.03906 15.49259,33.85152 3.29566,12.87167 3.33251,35.99596 0.078,48.93995 -2.72876,10.8529 -9.25102,24.92104 -16.24313,35.03549 -9.85044,14.24917 -31.7611,32.88838 -48.64189,41.37925 -14.76436,7.42632 -34.72264,14.0414 -47.31004,15.6807 -4.38035,0.57046 -4.2572,0.45706 4.6312,-4.26484 z M 318.71869,621.99468 c -22.00746,-3.39849 -40.09206,-9.94024 -54.91325,-19.86379 -8.77965,-5.87843 -21.51742,-18.09349 -27.16753,-26.05268 -5.13161,-7.2288 -10.97299,-19.64672 -14.11196,-30 -2.56533,-8.46121 -2.72725,-10.13743 -2.7048,-28 0.0223,-17.76864 0.20022,-19.58327 2.74469,-28 7.39435,-24.45937 21.71249,-45.41662 42.29422,-61.90544 21.77483,-17.44464 49.39877,-28.78571 75.35863,-30.93865 l 6.5,-0.53906 -3.5,1.59471 c -13.46532,6.13523 -22.32014,10.89485 -27.5,14.78171 -8.75298,6.56807 -21.02915,18.97484 -26.72243,27.00673 -18.07838,25.50439 -26.18805,59.92194 -21.26766,90.26033 4.55343,28.07578 15.09288,49.75798 32.92401,67.73268 9.45104,9.52713 17.31022,15.06805 29.92212,21.09584 l 9.14396,4.37031 -6,-0.0764 c -3.3,-0.042 -10.05,-0.70186 -15,-1.46626 z m 100,-7.09422 c -8.75914,-0.74791 -22.47,-3.67669 -32.46766,-6.93542 -25.91188,-8.44595 -46.50136,-22.49785 -62.981,-42.98322 -10.7028,-13.30435 -19.05134,-31.49289 -19.05134,-41.50618 0,-3.97293 0.44317,-5.10087 2.70238,-6.87796 l 2.70239,-2.1257 167.54761,0.36054 c 182.52771,0.39277 174.34835,0.14099 193.53006,5.95715 22.63446,6.86308 41.4602,21.30978 52.64089,40.39613 7.69235,13.13147 12.8566,30.18413 12.86966,42.49639 0.006,5.62948 -0.35485,6.99443 -2.44524,9.25 l -2.45225,2.64602 -154.29775,-0.1681 c -84.86377,-0.0925 -156.09775,-0.3218 -158.29775,-0.50965 z m 106,-391.74638 c -4.30922,-1.93319 -10.03464,-8.27855 -12.70065,-14.07587 -1.93569,-4.20919 -2.29935,-6.66069 -2.29935,-15.5 0,-9.27044 0.30743,-11.14405 2.62538,-16 4.05458,-8.49406 8.98724,-13.45241 17.63026,-17.72207 7.48685,-3.69851 7.87985,-3.77673 18.69598,-3.7211 14.9005,0.0766 20.51505,2.22694 29.63983,11.35172 7.39792,7.39792 10.54199,13.97893 11.02486,23.07668 l 0.28447,5.35963 -6.24176,1.2732 c -11.18633,2.28181 -20.35718,7.47434 -33.1352,18.76111 -3.0381,2.68355 -7.32382,5.71116 -9.52382,6.72804 -4.68624,2.16606 -11.75484,2.37311 -16,0.46866 z m 1,101.37963 c 9.45919,-2.48193 21.98085,-8.52375 28.98489,-13.98549 9.20039,-7.17446 11.01884,-8.78695 10.50072,-9.31142 -0.28291,-0.28638 -3.65791,0.39375 -7.5,1.51139 -10.11474,2.94233 -31.37586,3.64128 -42.45788,1.39577 -39.63547,-8.03117 -66.13028,-39.7799 -66.05605,-79.15496 0.0113,-6.00094 0.41984,-12.57576 0.90784,-14.61072 0.488,-2.03497 0.67136,-3.91585 0.40746,-4.17975 -1.11025,-1.11025 -11.30851,11.91297 -14.57564,18.61316 -5.22554,10.7165 -7.12857,20.76739 -6.37998,33.69612 1.17636,20.31683 6.89225,33.36741 20.63194,47.1071 11.73576,11.73576 24.79551,18.35629 41.51325,21.0448 7.94809,1.27819 25.14462,0.20364 34.02345,-2.126 z"
     id="path1"
     sodipodi:nodetypes="ssscccccsssssssssscsscssssssssssssssssssscccccssssscccsssssssssssssssssssssssssssssscccccsssssssccssssssssssscssccsssssssssssssssssssssscsssssscsssssssscssssscsssssssssscsssssssssssssssss"
     style="fill:#ffffff;fill-opacity:1" />
</svg>
